<svg id="Layer_1" data-name="Layer 1" xmlns="http://www.w3.org/2000/svg" viewBox="0 0 232 95.33" width="232px" height="95.33px" >
  <defs>
    <style>
      .cls-1 {
        fill: #5a2149;
      }

      .cls-2 {
        opacity: 0.7;
      }

      .cls-3 {
        fill: #00afaa;
      }

      .cls-4 {
        fill: #f5a800;
      }
    </style>
  </defs>
  <title>logo_consejo</title>
  <g>
    <g>
      <path class="cls-1" d="M69.92,25.41a4.55,4.55,0,0,0-3.73-2c-3,0-4.36,3-4.36,8,0,4.79,1.12,8.1,4.85,8.1a12.41,12.41,0,0,0,4.58-1l1.27,3.95A17.46,17.46,0,0,1,66,43.64c-7.22,0-10.42-4.29-10.42-11.83,0-7.28,3.45-12.52,10.63-12.52,3.77,0,5.56,1.4,6.9,2.92Z"/>
      <path class="cls-1" d="M90.26,34.42c0,5.31-2.74,9.36-8.3,9.36s-8.07-3.41-8.07-9c0-5.36,2.75-9.4,8.35-9.4S90.26,28.79,90.26,34.42Zm-10.45,0c0,2.85.46,5.17,2.46,5.17,1.73,0,2.12-2.18,2.12-4.82,0-2.89-.46-5.17-2.47-5.17C80.2,29.6,79.81,31.71,79.81,34.42Z"/>
      <path class="cls-1" d="M103.43,43.43v-11c0-1.62-.32-2.75-1.41-2.75-1.3,0-2.67,1.83-2.67,4.89v8.84H93.78V34.28c0-5.57-1.93-7.36-1.93-7.36l4.47-1.41a7.26,7.26,0,0,1,1.62,3.2,6.61,6.61,0,0,1,6-3.2c3.67,0,5.07,2.43,5.07,6.12v11.8Z"/>
      <path class="cls-1" d="M124.68,26.92l-1.76,3.94a9.37,9.37,0,0,0-3.83-1.26c-.74,0-1.34.31-1.34,1s1.06,1.48,2.64,2.14c2.78,1.16,4.4,2.64,4.4,5.35,0,3-2.18,5.67-6.34,5.67a17,17,0,0,1-7-1.62l1.83-4c.46.21,2.53,1.45,4.12,1.45,1,0,1.69-.39,1.69-1.13s-.88-1.62-2.08-2.08c-3.52-1.4-4.92-3-4.92-5.66,0-3,2.32-5.25,6.23-5.25A15.31,15.31,0,0,1,124.68,26.92Z"/>
      <path class="cls-1" d="M135.63,25.41c4.4,0,6.16,2.28,6.16,5.31,0,3.42-3.48,6.09-9.08,6.55a2.68,2.68,0,0,0,2.89,2.35,18,18,0,0,0,5-1.12l1.06,3.66a17.59,17.59,0,0,1-6.93,1.58c-5.74,0-8-3.48-8-8.66C126.69,28.79,130.6,25.41,135.63,25.41Zm-3.2,8.3c2.78-.07,3.84-1.72,3.84-2.85a1.36,1.36,0,0,0-1.34-1.48C133.13,29.38,132.5,31.71,132.43,33.71Z"/>
      <path class="cls-1" d="M144.71,25.76h5.53V41.91c0,5.25-2.82,7.47-6.72,9.37l-2.33-3.8c3-1.66,3.52-3.42,3.52-5.5Zm5.88-5.38a3,3,0,0,1-3.17,3.2,2.89,2.89,0,0,1-3.06-3,3,3,0,0,1,3.17-3.27A2.89,2.89,0,0,1,150.59,20.38Z"/>
      <path class="cls-1" d="M169.53,34.42c0,5.31-2.75,9.36-8.31,9.36s-8.06-3.41-8.06-9c0-5.36,2.74-9.4,8.34-9.4S169.53,28.79,169.53,34.42Zm-10.46,0c0,2.85.46,5.17,2.47,5.17,1.72,0,2.11-2.18,2.11-4.82,0-2.89-.46-5.17-2.47-5.17C159.46,29.6,159.07,31.71,159.07,34.42Z"/>
      <path class="cls-1" d="M69.43,50.15h5.81V74h-5L63.48,63.7c-.59-.88-2.11-3.41-2.74-4.43.1,1.44.32,4.22.32,5.56l.1,9.15H55.35V50.15h4.76L67,60.36c.84,1.27,2.18,3.48,2.85,4.57-.07-1.48-.25-4.18-.28-5.66Z"/>
      <path class="cls-1" d="M88.65,56.31h5.56V65.5c0,5.55,1.94,7.35,1.94,7.35l-4.47,1.41A7,7,0,0,1,90,71a6.55,6.55,0,0,1-6,3.17c-3.7,0-5.07-2.39-5.07-6.13V56.31h5.6v11c0,1.65.31,2.74,1.4,2.74,1.3,0,2.68-1.9,2.68-5Z"/>
      <path class="cls-1" d="M106.63,56c4.4,0,6.16,2.28,6.16,5.32,0,3.41-3.48,6.08-9.08,6.54a2.69,2.69,0,0,0,2.89,2.36,17.93,17.93,0,0,0,5-1.13l1.06,3.66a17.61,17.61,0,0,1-6.94,1.58c-5.74,0-8-3.48-8-8.65C97.69,59.34,101.6,56,106.63,56Zm-3.2,8.3c2.78-.07,3.84-1.72,3.84-2.85a1.36,1.36,0,0,0-1.34-1.48C104.14,59.93,103.5,62.26,103.43,64.26Z"/>
      <path class="cls-1" d="M130,56.31a24,24,0,0,1,.42,4.47c0,9.75-3,13.41-9.47,13.41-4,0-5.88-2.5-5.88-6.3V56.31h5.56V67.78c0,1.38.36,2.47,1.27,2.47,2.22,0,3-4.9,3-9.19a26.17,26.17,0,0,0-.43-4.75Z"/>
      <path class="cls-1" d="M149.05,65c0,5.31-2.75,9.36-8.31,9.36s-8.06-3.41-8.06-9C132.68,60,135.42,56,141,56S149.05,59.34,149.05,65Zm-10.46,0c0,2.85.46,5.17,2.47,5.17,1.72,0,2.11-2.18,2.11-4.82,0-2.89-.46-5.17-2.46-5.17C139,60.15,138.59,62.26,138.59,65Z"/>
      <path class="cls-1" d="M161.19,50.15H167V69.72h8.37V74H161.19Z"/>
      <path class="cls-1" d="M186.35,56c4.4,0,6.16,2.28,6.16,5.32,0,3.41-3.48,6.08-9.08,6.54a2.69,2.69,0,0,0,2.89,2.36,17.93,17.93,0,0,0,5-1.13l1.06,3.66a17.61,17.61,0,0,1-6.94,1.58c-5.74,0-8-3.48-8-8.65C177.41,59.34,181.32,56,186.35,56Zm-3.2,8.3c2.78-.07,3.84-1.72,3.84-2.85a1.36,1.36,0,0,0-1.34-1.48C183.85,59.93,183.22,62.26,183.15,64.26Z"/>
      <path class="cls-1" d="M210.64,65c0,5.31-2.75,9.36-8.31,9.36s-8.06-3.41-8.06-9C194.27,60,197,56,202.61,56S210.64,59.34,210.64,65Zm-10.45,0c0,2.85.45,5.17,2.46,5.17,1.72,0,2.11-2.18,2.11-4.82,0-2.89-.46-5.17-2.46-5.17C200.57,60.15,200.19,62.26,200.19,65Zm0-13.1,6.4-7.53,3.67,3.49a34.51,34.51,0,0,1-7.71,6.54Z"/>
      <path class="cls-1" d="M223.81,74V63c0-1.62-.33-2.75-1.42-2.75-1.3,0-2.67,1.83-2.67,4.9V74h-5.56V64.83c0-5.56-1.94-7.36-1.94-7.36l4.47-1.41a7.14,7.14,0,0,1,1.62,3.21,6.61,6.61,0,0,1,6-3.21c3.66,0,5.07,2.43,5.07,6.12V74Z"/>
    </g>
    <g class="cls-2">
      <path class="cls-1" d="M55.57,84h1.85c1.49,0,2.18.71,2.18,1.87s-.78,1.92-2.29,1.92h-.64v2.43h-1.1Zm1.1.78v2.18h.7a1,1,0,0,0,1.06-1.07,1,1,0,0,0-1.15-1.12Z"/>
      <path class="cls-1" d="M63,84h.88l2.38,6.2H65l-.57-1.62H62.25l-.58,1.62h-1.1Zm1.24,3.77c-.37-1.08-.67-2-.82-2.54-.17.55-.45,1.48-.83,2.54Z"/>
      <path class="cls-1" d="M72,85.64a1.48,1.48,0,0,1-1.14,1.53c.69.4,1,1.37,1.71,3h-1.2c-.83-1.93-1.14-2.68-2-2.68h-.26v2.68H68V84h1.84C71.36,83.94,72,84.56,72,85.64Zm-2.93-.91v2h.69c.67,0,1.06-.31,1.06-.91s-.26-1-1.15-1Z"/>
      <path class="cls-1" d="M76.16,84H77l2.38,6.2H78.25l-.57-1.62H75.46l-.58,1.62h-1.1Zm1.24,3.77c-.38-1.08-.67-2-.82-2.54-.18.55-.45,1.48-.83,2.54Z"/>
      <path class="cls-1" d="M84.74,84h1.1v5.37h2.32v.83H84.74Z"/>
      <path class="cls-1" d="M91.69,84h.88L95,90.16H93.78l-.57-1.62H91l-.58,1.62H89.3Zm1.23,3.77c-.37-1.08-.67-2-.81-2.54-.18.55-.46,1.48-.84,2.54Z"/>
      <path class="cls-1" d="M100.26,84h1.85c1.49,0,2.19.71,2.19,1.87s-.79,1.92-2.3,1.92h-.64v2.43h-1.1Zm1.1.78v2.18h.7a1,1,0,0,0,1.06-1.07A1,1,0,0,0,102,84.73Z"/>
      <path class="cls-1" d="M106.36,84h1.1v5.37h2.32v.83h-3.42Z"/>
      <path class="cls-1" d="M113.3,84h.88l2.39,6.2H115.4l-.57-1.62H112.6L112,90.16h-1.09Zm1.25,3.77c-.38-1.08-.68-2-.82-2.54-.18.55-.46,1.48-.83,2.54Z"/>
      <path class="cls-1" d="M122,84h1.1v6.21h-.91l-2.08-3.24-.77-1.22c0,.39.07.84.07,1.24l0,3.21h-1.1V83.94h.86l2.15,3.21.74,1.13c0-.39-.06-.82-.06-1.11Z"/>
      <path class="cls-1" d="M125.6,84h3.69v.84H126.7v1.72h2.13l-.14.83h-2v2h2.73v.83H125.6Z"/>
      <path class="cls-1" d="M133.19,84h.88l2.38,6.2h-1.17l-.57-1.62h-2.23l-.58,1.62h-1.09Zm1.23,3.77c-.37-1.08-.66-2-.81-2.54-.17.55-.46,1.48-.83,2.54Z"/>
      <path class="cls-1" d="M141.59,85.21a1.3,1.3,0,0,0-1-.48c-1,0-1.4,1-1.4,2.31s.32,2.33,1.49,2.33a3.84,3.84,0,0,0,1.16-.24l.26.78a3.1,3.1,0,0,1-.46.15,4,4,0,0,1-1.16.16c-1.65,0-2.48-1.07-2.48-3.08s.87-3.26,2.7-3.26a1.85,1.85,0,0,1,1.49.66Z"/>
      <path class="cls-1" d="M144.17,84h1.1v6.2h-1.1Z"/>
      <path class="cls-1" d="M152.83,87c0,1.9-.85,3.21-2.72,3.21s-2.59-1.14-2.59-3.08.84-3.26,2.71-3.26S152.83,85.08,152.83,87Zm-4.12,0c0,1.24.28,2.33,1.53,2.33,1.06,0,1.39-1,1.39-2.26s-.28-2.38-1.53-2.38C149.05,84.73,148.71,85.73,148.71,87Zm.63-4,2.07-1.39.5.75a5,5,0,0,1-1.47.89,5.82,5.82,0,0,1-.83.29Z"/>
      <path class="cls-1" d="M158.74,84h1.09v6.21h-.91l-2.08-3.24c-.23-.36-.52-.84-.77-1.22,0,.39.07.84.07,1.24l0,3.21h-1.1V83.94h.86l2.15,3.21.74,1.13c0-.39,0-.82,0-1.11Z"/>
      <path class="cls-1" d="M165.84,84h3.69v.84h-2.59v1.72h2.14l-.14.83h-2v2h2.73v.83h-3.83Z"/>
      <path class="cls-1" d="M175.33,84.37l-.45.79-.44-.21a2.47,2.47,0,0,0-.85-.21c-.44,0-.82.2-.82.63s.34.86,1.1,1.16c1,.39,1.56.81,1.56,1.81a1.92,1.92,0,0,1-2.07,1.88,4.09,4.09,0,0,1-2-.6l.38-.85a6.14,6.14,0,0,0,.57.29,2.74,2.74,0,0,0,1,.3.83.83,0,0,0,1-.9c0-.55-.36-.76-.92-1-1.09-.46-1.75-.88-1.75-2a1.79,1.79,0,0,1,2-1.65A3.81,3.81,0,0,1,175.33,84.37Z"/>
      <path class="cls-1" d="M177,84h4.34l-.14.84h-1.54v5.36h-1.1V84.8H177Z"/>
      <path class="cls-1" d="M187.33,85.64a1.47,1.47,0,0,1-1.14,1.53c.7.4,1,1.37,1.71,3h-1.2c-.83-1.93-1.14-2.68-2-2.68h-.26v2.68h-1.1V84h1.84C186.65,83.94,187.33,84.56,187.33,85.64Zm-2.93-.91v2h.69c.67,0,1.06-.31,1.06-.91s-.27-1-1.15-1Z"/>
      <path class="cls-1" d="M191.45,84h.88l2.38,6.2h-1.17L193,88.54h-2.23l-.58,1.62h-1.09Zm1.24,3.77c-.38-1.08-.67-2-.82-2.54-.17.55-.46,1.48-.83,2.54Z"/>
      <path class="cls-1" d="M195.51,84h4.33l-.13.84h-1.54v5.36h-1.1V84.8h-1.56Z"/>
      <path class="cls-1" d="M201.77,84h3.69v.84h-2.59v1.72H205l-.14.83h-2v2h2.73v.83h-3.83Zm1.15-.92L205,81.65l.49.75a5,5,0,0,1-1.47.89,5.82,5.82,0,0,1-.83.29Z"/>
      <path class="cls-1" d="M211.07,89.57a.45.45,0,0,0,0-.13,1.65,1.65,0,0,1-1.54.79c-1.53,0-2.18-1.22-2.18-3.08s.86-3.27,2.71-3.27a2.28,2.28,0,0,1,1.7.66l-.54.7a1.81,1.81,0,0,0-1.27-.51c-1.05,0-1.41,1-1.41,2.33s.34,2.31,1.2,2.31A1.32,1.32,0,0,0,211,88v-.83H212v2.76a2.31,2.31,0,0,1-1.63,2.3l-.43-.74A1.52,1.52,0,0,0,211,90,4.07,4.07,0,0,0,211.07,89.57Z"/>
      <path class="cls-1" d="M214.33,84h1.09v6.2h-1.09Z"/>
      <path class="cls-1" d="M221.31,85.21a1.3,1.3,0,0,0-1-.48c-1,0-1.4,1-1.4,2.31s.32,2.33,1.49,2.33a3.84,3.84,0,0,0,1.16-.24l.25.78a2.64,2.64,0,0,1-.45.15,4.1,4.1,0,0,1-1.16.16c-1.66,0-2.48-1.07-2.48-3.08s.87-3.26,2.7-3.26a1.86,1.86,0,0,1,1.49.66Z"/>
      <path class="cls-1" d="M225.59,84h.88l2.38,6.2h-1.17l-.57-1.62h-2.23l-.57,1.62h-1.1Zm1.24,3.77c-.38-1.08-.67-2-.82-2.54-.17.55-.45,1.48-.83,2.54Z"/>
    </g>
    <g>
      <path class="cls-3" d="M44.31,19.57H22.84a4.22,4.22,0,0,0-4.22,4.22V40.68a4.21,4.21,0,0,0,3.89,4.18h9.16a4.22,4.22,0,0,1,4.2,4.22v2h0v2.17H36A12.54,12.54,0,0,0,48.52,40.74v-17A4.22,4.22,0,0,0,44.31,19.57Z"/>
      <path class="cls-3" d="M28.31,16.15H38.83a1,1,0,0,0,1-1V9.92h0V4.67a1,1,0,0,0-1-1H33.58a6.23,6.23,0,0,0-6.24,6.23h0v5.26A1,1,0,0,0,28.31,16.15Z"/>
    </g>
    <path class="cls-4" d="M28.68,48.24H19.52A4.21,4.21,0,0,1,15.32,44V42h0V39.82h-.07A12.54,12.54,0,0,0,2.67,52.36v17a4.21,4.21,0,0,0,4.21,4.22H28.35a4.22,4.22,0,0,0,4.22-4.22V52.43A4.21,4.21,0,0,0,28.68,48.24Z"/>
    <path class="cls-4" d="M22.88,77H12.36a1,1,0,0,0-1,1v5.26h0v5.25a1,1,0,0,0,1,1h5.25a6.23,6.23,0,0,0,6.24-6.23h0V77.92A1,1,0,0,0,22.88,77Z"/>
  </g>
</svg>
